# xmcd
#
# Track frame offsets: 
#        150
#        66676
#        142567
#        263931
#
# Disc length: 4753 seconds
#
# Revision: 0
# Processed by: cddbd v1.5.2PL0 Copyright (c) Steve Scherf et al.
# Submitted via: ExactAudioCopy v1.0b1
#
DISCID=37128f04
DTITLE=Skrowaczewski - Bruckner Symphony No.8,CD2
DYEAR=2012
DGENRE=Classical
TTITLE0=Allegro moderato
TTITLE1=Scherzo.Allegro modeato
TTITLE2=Adagio.Feierlich langsam;doch nicht schleppend
TTITLE3=Finale.Feierlich;nicht schnell 
EXTD=
EXTT0=
EXTT1=
EXTT2=
EXTT3=
PLAYORDER=
